<svg
  width="24"
  height="24"
  viewBox="0 0 24 24"
  fill="none"
  xmlns="http://www.w3.org/2000/svg"
>
  <g clip-path="url(#clip0_3104_25433)">
    <path
      d="M10 4C11.0609 4 12.0783 4.42143 12.8284 5.17157C13.5786 5.92172 14 6.93913 14 8C14 9.06087 13.5786 10.0783 12.8284 10.8284C12.0783 11.5786 11.0609 12 10 12C8.93913 12 7.92172 11.5786 7.17157 10.8284C6.42143 10.0783 6 9.06087 6 8C6 6.93913 6.42143 5.92172 7.17157 5.17157C7.92172 4.42143 8.93913 4 10 4ZM10 14C14.42 14 18 15.79 18 18V20H2V18C2 15.79 5.58 14 10 14Z"
      fill="#1F77DF"
    />
    <path
      d="M18.2556 7.58533C18.4449 6.80489 19.5551 6.80489 19.7444 7.58533C19.7729 7.70258 19.8285 7.81146 19.907 7.90311C19.9854 7.99476 20.0844 8.0666 20.1958 8.11278C20.3073 8.15895 20.4281 8.17816 20.5483 8.16883C20.6686 8.15951 20.785 8.12191 20.888 8.05911C21.5738 7.64133 22.3591 8.42622 21.9413 9.11244C21.8786 9.2154 21.8411 9.33171 21.8318 9.4519C21.8225 9.57209 21.8417 9.69279 21.8878 9.80417C21.9339 9.91555 22.0057 10.0145 22.0972 10.0929C22.1888 10.1713 22.2975 10.2271 22.4147 10.2556C23.1951 10.4449 23.1951 11.5551 22.4147 11.7444C22.2974 11.7729 22.1885 11.8285 22.0969 11.907C22.0052 11.9854 21.9334 12.0844 21.8872 12.1958C21.8411 12.3073 21.8218 12.4281 21.8312 12.5483C21.8405 12.6686 21.8781 12.785 21.9409 12.888C22.3587 13.5738 21.5738 14.3591 20.8876 13.9413C20.7846 13.8786 20.6683 13.8411 20.5481 13.8318C20.4279 13.8225 20.3072 13.8417 20.1958 13.8878C20.0844 13.9339 19.9855 14.0057 19.9071 14.0972C19.8287 14.1888 19.7729 14.2975 19.7444 14.4147C19.5551 15.1951 18.4449 15.1951 18.2556 14.4147C18.2271 14.2974 18.1715 14.1885 18.093 14.0969C18.0146 14.0052 17.9156 13.9334 17.8042 13.8872C17.6927 13.8411 17.5719 13.8218 17.4517 13.8312C17.3314 13.8405 17.215 13.8781 17.112 13.9409C16.4262 14.3587 15.6409 13.5738 16.0587 12.8876C16.1214 12.7846 16.1589 12.6683 16.1682 12.5481C16.1775 12.4279 16.1583 12.3072 16.1122 12.1958C16.0661 12.0844 15.9943 11.9855 15.9028 11.9071C15.8112 11.8287 15.7025 11.7729 15.5853 11.7444C14.8049 11.5551 14.8049 10.4449 15.5853 10.2556C15.7026 10.2271 15.8115 10.1715 15.9031 10.093C15.9948 10.0146 16.0666 9.9156 16.1128 9.80415C16.159 9.6927 16.1782 9.57193 16.1688 9.45165C16.1595 9.33138 16.1219 9.215 16.0591 9.112C15.6413 8.42622 16.4262 7.64089 17.1124 8.05867C17.5569 8.32889 18.1329 8.08978 18.2556 7.58533Z"
      fill="#1F77DF"
      stroke="#1F77DF"
      stroke-width="0.9"
      stroke-linecap="round"
      stroke-linejoin="round"
    />
    <path
      d="M18.9994 12.7147C19.9462 12.7147 20.7137 11.9472 20.7137 11.0004C20.7137 10.0536 19.9462 9.28613 18.9994 9.28613C18.0527 9.28613 17.2852 10.0536 17.2852 11.0004C17.2852 11.9472 18.0527 12.7147 18.9994 12.7147Z"
      stroke="#1F77DF"
      stroke-width="0.9"
      stroke-linecap="round"
      stroke-linejoin="round"
    />
  </g>
  <defs>
    <clipPath id="clip0_3104_25433">
      <rect width="24" height="24" fill="white" />
    </clipPath>
  </defs>
</svg>
