<svg width="24" height="24" viewBox="0 0 24 24" fill="none" xmlns="http://www.w3.org/2000/svg">
<g clip-path="url(#clip0_3170_23539)">
<path d="M19.15 10.3812C18.2534 10.3812 17.4751 10.9106 17.1037 11.6222L14.9245 11.2208C14.9161 10.8857 14.8076 10.5538 14.6436 10.3178L17.557 7.40435C17.7899 7.51563 18.0242 7.57188 18.2594 7.57188C19.237 7.57188 20.0313 6.77761 20.0313 5.8C20.0313 4.82239 19.237 4.02813 18.2594 4.02813C17.2818 4.02813 16.4875 4.82239 16.4875 5.8C16.4875 6.0352 16.5437 6.26947 16.655 6.50239L13.7963 9.36115C13.4463 9.18975 13.0914 9.075 12.6781 9.075C12.2648 9.075 11.9097 9.18981 11.5597 9.36129L8.16723 6.02733C8.33982 5.68179 8.5125 5.32334 8.5125 4.85C8.5125 3.57384 7.41967 2.54375 6.14688 2.54375C4.87239 2.54375 3.84063 3.57551 3.84063 4.85C3.84063 6.12449 4.87239 7.15625 6.14688 7.15625C6.55685 7.15625 6.91063 7.04332 7.20763 6.87209L10.5361 10.2005C10.4352 10.3616 10.3786 10.5222 10.3265 10.6781H8.61473C8.36203 10.0815 7.75818 9.60937 6.97813 9.60937C6.00051 9.60937 5.20625 10.4036 5.20625 11.3813C5.20625 12.3589 6.00051 13.1531 6.97813 13.1531C7.70016 13.1531 8.36171 12.6803 8.61587 12.025H10.3859C10.438 12.1809 10.4946 12.3415 10.5955 12.5026L7.02752 16.0705C6.67758 15.8991 6.3226 15.7844 5.90938 15.7844C4.57551 15.7844 3.54375 16.8161 3.54375 18.15C3.54375 19.4847 4.57638 20.4562 5.85 20.4562C7.12449 20.4562 8.15625 19.4245 8.15625 18.15C8.15625 17.7368 8.0415 17.3818 7.8701 17.0319L11.4412 13.4607C11.7912 13.6321 12.1462 13.7469 12.5594 13.7469H12.6417L13.6297 16.8273C13.2764 17.1349 13.0438 17.6138 13.0438 18.15C13.0438 19.1276 13.838 19.9219 14.8156 19.9219C15.7932 19.9219 16.5875 19.1276 16.5875 18.15C16.5875 17.1848 15.8133 16.3984 14.8529 16.3785L13.9241 13.302C14.2602 13.0704 14.4904 12.785 14.6646 12.4476L16.7867 12.9065C16.8669 14.1029 17.8896 15.0531 19.0906 15.0531C20.3651 15.0531 21.3969 14.0214 21.3969 12.7469C21.3969 11.4759 20.4279 10.3812 19.15 10.3812ZM15.3594 18.15C15.3594 18.4193 15.1443 18.6344 14.875 18.6344C14.6057 18.6344 14.3906 18.4193 14.3906 18.15C14.3906 17.8807 14.6057 17.6656 14.875 17.6656C15.1443 17.6656 15.3594 17.8807 15.3594 18.15ZM18.2594 5.25625C18.5286 5.25625 18.7438 5.47136 18.7438 5.74063C18.7438 6.00989 18.5286 6.225 18.2594 6.225C17.9901 6.225 17.775 6.00989 17.775 5.74063C17.775 5.47136 17.9901 5.25625 18.2594 5.25625ZM13.6375 11.3813C13.6375 11.9474 13.1849 12.4 12.6188 12.4C12.0526 12.4 11.6 11.9474 11.6 11.3813C11.6 10.8151 12.0526 10.3625 12.6188 10.3625C13.1849 10.3625 13.6375 10.8151 13.6375 11.3813ZM5.12813 4.85C5.12813 4.28386 5.58074 3.83125 6.14688 3.83125C6.71301 3.83125 7.16563 4.28386 7.16563 4.85C7.16563 5.41969 6.70959 5.92812 6.14688 5.92812C5.5825 5.92812 5.12813 5.47731 5.12813 4.85ZM6.97813 11.8656C6.70886 11.8656 6.49375 11.6505 6.49375 11.3813C6.49375 11.112 6.70886 10.8969 6.97813 10.8969C7.24739 10.8969 7.4625 11.112 7.4625 11.3813C7.4625 11.6505 7.24739 11.8656 6.97813 11.8656ZM5.85 19.1688C5.28386 19.1688 4.83125 18.7161 4.83125 18.15C4.83125 17.5839 5.28386 17.1313 5.85 17.1313C6.41614 17.1313 6.86875 17.5839 6.86875 18.15C6.86875 18.718 6.47368 19.1688 5.85 19.1688ZM19.15 13.7062C18.5839 13.7062 18.1313 13.2536 18.1313 12.6875C18.1313 12.1214 18.5839 11.6688 19.15 11.6688C19.7161 11.6688 20.1688 12.1214 20.1688 12.6875C20.1688 13.2536 19.7161 13.7062 19.15 13.7062Z" fill="#1F77DF" stroke="#1F77DF" stroke-width="0.1"/>
</g>
<defs>
<clipPath id="clip0_3170_23539">
<rect width="19" height="19" fill="white" transform="translate(3 2)"/>
</clipPath>
</defs>
</svg>
