<svg
  width="24"
  height="24"
  viewBox="0 0 24 24"
  fill="none"
  xmlns="http://www.w3.org/2000/svg"
>
  <g clip-path="url(#clip0_3276_24390)">
    <g clip-path="url(#clip1_3276_24390)">
      <path
        d="M9 5H7C6.44772 5 6 5.44772 6 6V18C6 18.5523 6.44772 19 7 19H9C9.55229 19 10 18.5523 10 18V6C10 5.44772 9.55229 5 9 5Z"
        stroke="#1B1B1B"
        stroke-width="2"
        stroke-linecap="round"
        stroke-linejoin="round"
      />
      <path
        d="M17 5H15C14.4477 5 14 5.44772 14 6V18C14 18.5523 14.4477 19 15 19H17C17.5523 19 18 18.5523 18 18V6C18 5.44772 17.5523 5 17 5Z"
        stroke="#1B1B1B"
        stroke-width="2"
        stroke-linecap="round"
        stroke-linejoin="round"
      />
    </g>
  </g>
  <defs>
    <clipPath id="clip0_3276_24390">
      <rect width="24" height="24" fill="white" />
    </clipPath>
    <clipPath id="clip1_3276_24390">
      <rect width="24" height="24" fill="white" />
    </clipPath>
  </defs>
</svg>
