<svg width="24" height="24" viewBox="0 0 24 24" fill="none" xmlns="http://www.w3.org/2000/svg">
<path d="M10.1818 5.63636C10.002 5.63636 9.82625 5.68968 9.67675 5.78957C9.52725 5.88947 9.41074 6.03145 9.34193 6.19756C9.27312 6.36368 9.25512 6.54646 9.2902 6.72281C9.32527 6.89916 9.41186 7.06114 9.53899 7.18828C9.66613 7.31542 9.82812 7.402 10.0045 7.43708C10.1808 7.47216 10.3636 7.45415 10.5297 7.38535C10.6958 7.31654 10.8378 7.20002 10.9377 7.05052C11.0376 6.90102 11.0909 6.72526 11.0909 6.54545C11.0909 6.30435 10.9951 6.07312 10.8246 5.90263C10.6542 5.73214 10.4229 5.63636 10.1818 5.63636ZM6.54545 5.63636C6.36565 5.63636 6.18989 5.68968 6.04039 5.78957C5.89089 5.88947 5.77437 6.03145 5.70556 6.19756C5.63676 6.36368 5.61875 6.54646 5.65383 6.72281C5.68891 6.89916 5.77549 7.06114 5.90263 7.18828C6.02977 7.31542 6.19175 7.402 6.3681 7.43708C6.54445 7.47216 6.72723 7.45415 6.89335 7.38535C7.05946 7.31654 7.20144 7.20002 7.30134 7.05052C7.40123 6.90102 7.45455 6.72526 7.45455 6.54545C7.45455 6.30435 7.35877 6.07312 7.18828 5.90263C7.01779 5.73214 6.78656 5.63636 6.54545 5.63636ZM13.8182 5.63636C13.6384 5.63636 13.4626 5.68968 13.3131 5.78957C13.1636 5.88947 13.0471 6.03145 12.9783 6.19756C12.9095 6.36368 12.8915 6.54646 12.9266 6.72281C12.9616 6.89916 13.0482 7.06114 13.1754 7.18828C13.3025 7.31542 13.4645 7.402 13.6408 7.43708C13.8172 7.47216 14 7.45415 14.1661 7.38535C14.3322 7.31654 14.4742 7.20002 14.5741 7.05052C14.674 6.90102 14.7273 6.72526 14.7273 6.54545C14.7273 6.30435 14.6315 6.07312 14.461 5.90263C14.2905 5.73214 14.0593 5.63636 13.8182 5.63636ZM19.2727 2H4.72727C4.00395 2 3.31026 2.28734 2.7988 2.7988C2.28734 3.31026 2 4.00395 2 4.72727V19.2727C2 19.996 2.28734 20.6897 2.7988 21.2012C3.31026 21.7127 4.00395 22 4.72727 22H19.2727C19.996 22 20.6897 21.7127 21.2012 21.2012C21.7127 20.6897 22 19.996 22 19.2727V4.72727C22 4.00395 21.7127 3.31026 21.2012 2.7988C20.6897 2.28734 19.996 2 19.2727 2ZM20.1818 19.2727C20.1818 19.5138 20.086 19.7451 19.9156 19.9156C19.7451 20.086 19.5138 20.1818 19.2727 20.1818H4.72727C4.48617 20.1818 4.25494 20.086 4.08445 19.9156C3.91396 19.7451 3.81818 19.5138 3.81818 19.2727V11.0909H20.1818V19.2727ZM20.1818 9.27273H3.81818V4.72727C3.81818 4.48617 3.91396 4.25494 4.08445 4.08445C4.25494 3.91396 4.48617 3.81818 4.72727 3.81818H19.2727C19.5138 3.81818 19.7451 3.91396 19.9156 4.08445C20.086 4.25494 20.1818 4.48617 20.1818 4.72727V9.27273Z" fill="#1F77DF"/>
</svg>
