<svg width="24" height="24" viewBox="0 0 24 24" fill="none" xmlns="http://www.w3.org/2000/svg">
<g clip-path="url(#clip0_3100_23437)">
<path d="M9 11C11.2091 11 13 9.20914 13 7C13 4.79086 11.2091 3 9 3C6.79086 3 5 4.79086 5 7C5 9.20914 6.79086 11 9 11Z" stroke="#5C6673" stroke-width="2" stroke-linecap="round" stroke-linejoin="round"/>
<path d="M3 21V19C3 17.9391 3.42143 16.9217 4.17157 16.1716C4.92172 15.4214 5.93913 15 7 15H11C12.0609 15 13.0783 15.4214 13.8284 16.1716C14.5786 16.9217 15 17.9391 15 19V21" stroke="#5C6673" stroke-width="2" stroke-linecap="round" stroke-linejoin="round"/>
<path d="M15 9H19" stroke="#5C6673" stroke-width="1.1" stroke-linecap="round" stroke-linejoin="round"/>
<path d="M17 7V8C17 10.209 16.1044 12 15 12" stroke="#5C6673" stroke-width="1.1" stroke-linecap="round" stroke-linejoin="round"/>
<path d="M15 11C14.9982 11.536 16.7624 11.977 19 12" stroke="#5C6673" stroke-width="1.1" stroke-linecap="round" stroke-linejoin="round"/>
<path d="M19 16L20.5 11L22 16" stroke="#5C6673" stroke-width="1.1" stroke-linecap="round" stroke-linejoin="round"/>
<path d="M22 14H19" stroke="#5C6673" stroke-width="1.1" stroke-linecap="round" stroke-linejoin="round"/>
</g>
<defs>
<clipPath id="clip0_3100_23437">
<rect width="24" height="24" fill="white"/>
</clipPath>
</defs>
</svg>
