<svg
  width="24"
  height="24"
  viewBox="0 0 24 24"
  fill="none"
  xmlns="http://www.w3.org/2000/svg"
>
  <g clip-path="url(#clip0_3104_25586)">
    <path
      d="M9 11C11.2091 11 13 9.20914 13 7C13 4.79086 11.2091 3 9 3C6.79086 3 5 4.79086 5 7C5 9.20914 6.79086 11 9 11Z"
      stroke="#1F77DF"
      stroke-width="2"
      stroke-linecap="round"
      stroke-linejoin="round"
    />
    <path
      d="M3 21V19C3 17.9391 3.42143 16.9217 4.17157 16.1716C4.92172 15.4214 5.93913 15 7 15H11C12.0609 15 13.0783 15.4214 13.8284 16.1716C14.5786 16.9217 15 17.9391 15 19V21"
      stroke="#1F77DF"
      stroke-width="2"
      stroke-linecap="round"
      stroke-linejoin="round"
    />
    <path
      d="M18 13.55C18.856 13.55 19.55 12.856 19.55 12C19.55 11.144 18.856 10.45 18 10.45C17.144 10.45 16.45 11.144 16.45 12C16.45 12.856 17.144 13.55 18 13.55Z"
      stroke="#1F77DF"
      stroke-width="1.1"
      stroke-linecap="round"
      stroke-linejoin="round"
    />
    <path
      d="M13.5147 11.7412C13.4284 11.9029 13.4284 12.0971 13.5147 12.2588C14.6321 14.3539 16.1164 15.55 18 15.55C19.8836 15.55 21.3679 14.3539 22.4853 12.2588C22.5716 12.0971 22.5716 11.9029 22.4853 11.7412C21.3679 9.64613 19.8836 8.45 18 8.45C16.1164 8.45 14.6321 9.64613 13.5147 11.7412Z"
      stroke="#1F77DF"
      stroke-width="1.1"
      stroke-linecap="round"
      stroke-linejoin="round"
    />
  </g>
  <defs>
    <clipPath id="clip0_3104_25586">
      <rect width="24" height="24" fill="white" />
    </clipPath>
  </defs>
</svg>
